<?xml version="1.0" encoding="UTF-8" standalone="no"?>
<!DOCTYPE svg PUBLIC "-//W3C//DTD SVG 1.1//EN" "http://www.w3.org/Graphics/SVG/1.1/DTD/svg11.dtd">
<svg width="100%" height="100%" viewBox="0 0 1024 1024" version="1.1" xmlns="http://www.w3.org/2000/svg" xmlns:xlink="http://www.w3.org/1999/xlink" xml:space="preserve" xmlns:serif="http://www.serif.com/" style="fill-rule:evenodd;clip-rule:evenodd;stroke-linejoin:round;stroke-miterlimit:2;">
    <g id="bill-belichick-evil-hoodie-dark-robe-clip-art.svg">
        <g transform="matrix(1,0,0,1,-37.0863,0)">
            <path d="M411.312,877.047C408.445,876.086 405.514,875.449 402.568,874.781C406.864,876.936 411.187,879.035 415.538,881.077C395.954,884.067 378.759,891.936 360.035,897.708C344.814,902.4 329.701,904.802 314.016,907.191C328.776,898.422 344.375,892.755 360.132,886.16C374.134,880.301 388.789,872.941 403.781,870.025C408.43,869.12 412.161,869.171 416.781,870.175C420.207,872.362 423.321,874.994 426.764,877.126C424.165,873.964 421.178,869.38 417.505,867.521L416.79,868.226L416.125,868.134L415.938,866.893C420.27,863.17 432.083,864.431 437.404,864.821C440.709,865.053 443.995,865.448 447.261,866.005C450.528,866.562 453.759,867.278 456.954,868.154C471.613,872.032 488.183,880.125 503.408,876.608C500.39,882.462 497.169,888.347 495.32,894.697C494.176,898.625 492.619,913.029 491.585,914.745C490.501,916.545 487.708,917.623 485.827,918.386L478.818,917.482C480.114,920.73 481.661,923.771 483.305,926.856C483.446,928.057 483.565,929.29 483.314,930.485C482.323,935.199 474.784,958.3 472.192,961.717C470.982,963.311 469.74,964.147 467.864,964.768C466.458,964.639 464.944,964.127 464.071,962.938C463.98,962.814 463.92,962.671 463.844,962.537C462.93,960.34 462.001,958.116 460.827,956.044C451.149,938.964 433.744,923.448 415.448,916.211C410.012,914.061 404.094,912.841 398.465,911.262C415.098,907.191 425.351,899.078 443.957,897.68C432.986,894.51 423.418,894.606 412.402,897.372C399.82,901.774 388.131,906.573 374.569,906.506C382.957,901.349 397.04,893.907 406.415,891.032C409.056,891.927 411.692,892.781 414.371,893.553C413.713,891.509 409.273,889.336 407.473,888.184C417.188,885.037 427.855,885.118 437.976,884.928C437.411,884.728 436.843,884.543 436.277,884.347C427.717,881.393 419.737,881.077 411.312,877.047Z" style="fill:white;stroke:white;stroke-width:9.5px;"/>
        </g>
        <g transform="matrix(1,0,0,1,-37.0863,0)">
            <path d="M382.267,41.2C404.389,38.836 448.166,44.083 469.633,51.375C484.284,56.352 495.281,64.837 504.395,77.328C507.023,80.93 509.431,85.665 512.717,88.624C515.47,91.105 519.493,93.053 522.618,95.111C526.586,97.723 530.383,100.618 534.2,103.444C562.906,124.697 591.936,148.025 607.981,180.713C608.672,182.13 609.348,183.553 610.011,184.983C610.674,186.413 611.322,187.85 611.956,189.293C612.59,190.736 613.21,192.185 613.815,193.64C614.421,195.095 615.012,196.556 615.589,198.023C616.166,199.49 616.728,200.962 617.275,202.44C617.823,203.918 618.356,205.401 618.874,206.889C619.393,208.378 619.896,209.871 620.385,211.37C620.874,212.868 621.348,214.371 621.807,215.879C622.266,217.386 622.711,218.898 623.14,220.415C623.569,221.932 623.983,223.452 624.382,224.977C624.781,226.502 625.166,228.03 625.535,229.563C625.904,231.095 626.258,232.631 626.597,234.17C626.936,235.709 627.259,237.252 627.567,238.797C627.875,240.343 628.168,241.892 628.446,243.443C628.723,244.994 628.986,246.548 629.233,248.105C629.48,249.662 629.711,251.221 629.928,252.782C630.144,254.343 630.345,255.907 630.53,257.472C630.715,259.037 630.885,260.603 631.039,262.172C631.194,263.741 631.333,265.311 631.456,266.882C631.579,268.453 631.687,270.026 631.78,271.599C631.872,273.172 631.949,274.746 632.01,276.321C632.071,277.896 632.117,279.472 632.147,281.048C632.177,282.623 632.191,284.199 632.19,285.776C632.189,287.352 632.173,288.928 632.141,290.503C632.108,292.079 632.061,293.654 631.998,295.229C631.935,296.804 631.856,298.378 631.761,299.951C631.667,301.524 631.557,303.097 631.432,304.668C631.306,306.239 631.165,307.809 631.009,309.377C630.852,310.946 630.68,312.512 630.493,314.077C630.306,315.642 630.103,317.205 629.885,318.766C629.666,320.327 629.433,321.885 629.184,323.442C628.935,324.998 628.671,326.552 628.391,328.103C625.223,345.213 619.922,361.606 614.328,378.038C640.233,373.361 676.135,372.982 700.441,383.424C707.456,386.438 714.015,390.731 719.097,396.488C726.413,404.773 731.281,415.355 737.472,424.498C747.504,439.313 758.664,453.725 769.603,467.895C776.522,476.859 783.493,485.891 790.662,494.65C798.403,504.108 808.77,513.877 813.266,525.417C820.956,545.159 815.296,570.588 807.037,589.226C811.911,591.9 816.374,595.636 820.686,599.132C851.77,624.333 880.158,652.22 903.772,684.669C949.862,748.002 976.658,830.61 984.743,908.039C976.691,912.686 967.376,916.239 958.722,919.605C936.506,928.144 913.882,935.413 890.85,941.411C846.445,953.791 801.566,964.111 756.213,972.371C736.183,975.906 716.099,979.107 695.962,981.973C685.947,983.319 675.878,984.19 665.866,985.536C668.816,978.373 673.625,971.474 677.677,964.882C687.437,949.004 697.854,933.609 707.763,917.85C713.362,909.017 718.717,900.038 723.829,890.915C728.941,881.792 733.802,872.536 738.411,863.149C743.021,853.762 747.373,844.256 751.467,834.633C755.561,825.01 759.391,815.282 762.958,805.451C759.301,862.363 747.542,913.525 724.348,965.71C751.252,933.024 790.045,902.084 833.018,895.532C859.493,891.495 887.542,895.618 909.341,911.728C909.093,910.024 908.83,908.322 908.552,906.623C908.274,904.924 907.98,903.228 907.671,901.534C907.362,899.84 907.039,898.149 906.7,896.461C906.361,894.773 906.006,893.088 905.637,891.406C905.267,889.725 904.882,888.047 904.483,886.372C904.083,884.697 903.668,883.026 903.239,881.359C902.809,879.692 902.364,878.028 901.905,876.369C901.446,874.71 900.971,873.054 900.482,871.403C899.993,869.752 899.488,868.106 898.969,866.465C898.45,864.823 897.917,863.186 897.368,861.554C896.82,859.921 896.257,858.294 895.68,856.672C895.102,855.05 894.51,853.433 893.903,851.822C893.296,850.211 892.675,848.605 892.04,847.005C891.405,845.405 890.755,843.811 890.09,842.222C889.426,840.633 888.748,839.051 888.055,837.474C887.362,835.898 886.656,834.328 885.935,832.765C885.214,831.201 884.479,829.644 883.73,828.093C882.981,826.543 882.219,825 881.442,823.463C880.665,821.926 879.875,820.397 879.071,818.874C878.267,817.351 877.449,815.836 876.618,814.328C875.787,812.821 874.942,811.321 874.084,809.828C873.225,808.335 872.354,806.85 871.469,805.373C870.584,803.896 869.685,802.428 868.774,800.967C867.863,799.506 866.938,798.054 866.001,796.609C865.063,795.165 864.113,793.729 863.15,792.302C862.187,790.875 861.21,789.457 860.221,788.047C859.232,786.638 858.231,785.237 857.217,783.846C856.203,782.454 855.177,781.072 854.138,779.699C853.099,778.326 852.048,776.962 850.985,775.608C849.922,774.253 848.846,772.909 847.758,771.574C846.671,770.239 845.571,768.914 844.46,767.599C843.349,766.284 842.226,764.979 841.091,763.684C849.412,768.224 857.042,773.886 864.678,779.468C887.808,796.377 908.306,814.324 927.564,835.556C932.834,841.367 938.313,847.117 942.997,853.418C937.351,820.34 917.895,790.926 897.611,764.932C891.814,757.504 884.423,750.407 879.542,742.384C879.447,742.229 879.357,742.07 879.264,741.913C890.901,752.092 902.448,761.719 912.98,773.102C921.857,782.696 929.603,793.236 937.852,803.358C936.856,791.358 932.965,760.717 925.734,751.558C907.027,727.864 854.646,700.695 824.962,697.768C771.047,692.452 715.201,715.471 674.246,749.412C599.16,811.64 568.695,898.273 560.109,992.917C520.377,994.832 479.911,995.857 440.406,990.777C436.158,967.6 429.362,943.48 416.372,923.597C428.724,929.048 442.108,938.036 450.518,948.717C453.794,952.879 460.988,967.393 465.052,968.686C467.42,969.44 470.412,968.781 472.421,967.404C478.392,963.308 481.627,948.033 483.096,941.028C484.104,940.826 484.845,940.675 485.776,940.205C486.698,939.74 486.532,939.447 486.817,938.52C485.287,934.348 487.496,934.648 488.105,931.079C488.492,928.81 486.532,926.214 485.425,924.36C488.239,922.388 491.449,920.898 494.496,919.312C497.84,912.416 497.64,904.218 499.855,896.913C503.017,886.487 508.152,876.039 512.481,866.013C511.005,867.061 509.525,868.119 507.996,869.088C495.749,876.855 472.72,866.447 460.012,862.517C453.454,860.489 446.801,858.946 440.103,857.462C448.867,843.714 457.799,829.768 467.404,816.594C470.929,811.757 474.533,806.979 478.216,802.262C481.899,797.544 485.66,792.889 489.498,788.296C493.336,783.703 497.249,779.176 501.238,774.713C505.226,770.25 509.287,765.855 513.422,761.527C517.557,757.199 521.762,752.941 526.037,748.753C530.313,744.565 534.657,740.449 539.07,736.405C543.483,732.361 547.961,728.392 552.505,724.497C557.05,720.602 561.658,716.783 566.329,713.041C579.362,702.566 593.526,693.777 606.668,683.544C556.386,749.636 540.032,793.578 534.298,876.083C532.807,897.529 531.095,920.419 533.671,941.797C536.596,925.769 540.333,910.523 544.828,894.876C550.538,875.762 556.025,856.552 563.113,837.889C565.919,830.578 568.926,823.351 572.133,816.207C575.34,809.063 578.742,802.013 582.339,795.057C585.936,788.102 589.723,781.251 593.7,774.505C597.677,767.76 601.838,761.129 606.182,754.614C609.356,749.76 617.127,737.231 621.423,734.396L621.209,735.351L620.615,735.271L619.814,736.288L620.605,736.404C612.087,750.914 588.052,789.415 587.739,805.063C587.686,807.714 588.307,810.691 590.245,812.63C591.395,813.781 593.035,814.481 594.664,814.482C598.742,814.486 602.857,811.558 605.772,808.922C612.163,803.142 617.175,794.836 622.483,788.011C630.14,778.032 638.46,768.642 647.443,759.839C687.099,720.827 735.125,693.906 791.138,688.408C801.056,687.435 810.902,687.449 820.859,687.531C815.064,679.649 810.572,670.854 804.65,662.958C781.404,631.961 749.398,601.386 716.162,581.239C703.545,584.084 691.243,587.412 679.035,591.703C673.43,593.687 667.861,595.764 662.326,597.935C656.791,600.106 651.293,602.368 645.834,604.722C640.375,607.076 634.956,609.521 629.579,612.056C624.202,614.591 618.868,617.216 613.578,619.93C608.288,622.643 603.045,625.445 597.849,628.334C592.652,631.223 587.506,634.198 582.409,637.259C577.312,640.32 572.268,643.465 567.277,646.695C562.285,649.924 557.349,653.236 552.468,656.631C528.832,673.24 507.611,693.128 486.701,712.952C440.395,756.853 399.249,800.772 362.02,852.826C352.623,865.965 342.91,879.314 335.888,893.904C330.368,896.745 324.524,898.543 319.326,902.061C325.372,889.045 333.887,877.295 341.614,865.262C354.615,845.018 368.922,826.327 383.967,807.582C402.648,784.175 422.446,761.755 443.36,740.32C454.467,729.315 465.681,718.421 477.003,707.637C484.811,700.313 492.837,693.208 500.433,685.661C474.235,700.579 450.543,720.52 427.637,739.957C403.959,760.047 380.434,780.55 359.537,803.576C350.077,814.079 340.844,824.779 331.838,835.674C327.289,841.272 323.179,847.599 318.294,852.861C322.166,843.618 328.278,834.763 333.665,826.337C352.73,796.521 373.917,769.237 397.554,742.93C405.337,734.268 413.176,725.421 421.557,717.333C406.347,724.477 385.642,738.42 372.258,748.726C367.448,752.43 362.767,756.224 358.613,760.673C336.649,784.196 313.091,829.14 302.071,859.634C294.802,879.748 289.925,901.184 285.083,921.989C279.721,945.028 274.335,968.563 271.274,992.026C268.432,991.572 265.629,990.953 262.818,990.347C264.934,971.689 268.846,953.425 272.584,935.049C273.17,932.168 274.275,929.398 274.805,926.536C274.996,925.498 274.91,924.84 274.508,923.846C273.304,923.06 272.993,923.008 271.55,922.892C268.114,926.262 258.673,980.623 257.412,989.495C255.535,989.069 253.545,988.937 251.633,988.709C256.612,965.743 260.883,942.959 267.458,920.365C265.601,919.285 264.024,918.13 262.405,916.719C263.545,910.368 263.56,901.313 267.431,896.01C268.634,894.362 270.044,892.545 270.544,890.532C272.007,884.649 271.039,872.284 271.072,865.793C271.182,843.938 271.778,822.179 270.567,800.333C269.947,789.153 268.289,778.142 267.281,767.007C258.269,789.058 249.828,811.325 241.959,833.809C234.09,856.293 226.802,878.964 220.096,901.822C213.012,925.214 205.145,950.484 201.12,974.558C198.11,973.745 195.165,972.834 192.213,971.831C196.378,950.517 202.531,929.345 208.61,908.498C216.479,881.902 225.017,855.523 234.224,829.361C243.432,803.199 253.298,777.287 263.821,751.626C262.548,743.051 260.87,734.557 258.785,726.143C254.359,707.958 248.804,690.027 244.483,671.832C241.533,659.408 239.447,646.671 237.451,634.061C236.766,629.74 234.336,620.119 236.428,616.263C237.916,613.52 242.338,613.646 245.119,613.576C266.835,613.033 283.986,610.387 304.099,601.988C312.044,598.669 319.766,594.801 327.697,591.424C318.795,586.377 301.392,578.112 291.174,578.368C283.107,578.57 275.458,579.914 267.486,577.715C256.914,574.798 251.294,568.214 246.091,558.975C232.491,556.201 217.534,555.309 208.239,543.768C199.26,532.618 194.304,515.751 198.357,501.697C200.247,495.143 203.164,489.805 203.896,482.841C200.387,478.555 194.961,476.248 193.059,470.604C191.419,465.74 193.391,461.114 195.583,456.813L195.166,450.741C193.371,448.765 191.41,446.663 190.12,444.312C186.906,438.451 187.862,410.825 188.754,403.504C189.166,400.129 190.102,396.88 191.032,393.618C188.686,393.167 186.331,392.72 184.01,392.152C174.61,389.849 165.185,385.439 160.189,376.704C160.004,376.383 159.828,376.057 159.661,375.727C159.493,375.396 159.334,375.062 159.185,374.723C159.035,374.384 158.894,374.041 158.763,373.695C158.632,373.348 158.51,372.999 158.397,372.646C158.284,372.293 158.181,371.937 158.087,371.579C157.993,371.22 157.909,370.86 157.834,370.497C157.759,370.134 157.695,369.77 157.64,369.403C157.585,369.037 157.539,368.669 157.503,368.3C157.468,367.931 157.442,367.562 157.426,367.192C157.41,366.822 157.404,366.452 157.408,366.081C157.412,365.71 157.426,365.34 157.449,364.971C157.472,364.601 157.506,364.232 157.549,363.864C157.592,363.496 157.645,363.13 157.708,362.765C157.771,362.4 157.843,362.036 157.925,361.675C158.007,361.314 158.098,360.955 158.199,360.598C158.3,360.242 158.411,359.889 158.531,359.538C161.955,349.641 172.627,339.055 178.853,330.357C184.116,323.004 188.659,315.341 192.798,307.307C194.561,303.885 196.958,299.923 197.791,296.171C199.222,289.728 187.95,291.762 185.428,286.744C183.316,282.543 186.565,276.761 188.197,272.931C187.635,269.509 187.342,266.221 187.514,262.752C188.355,245.766 199.804,231.043 205.925,215.573C215.847,190.497 219.926,156.863 240.959,138.088C230.744,135.841 220.509,133.72 210.36,131.185C220.032,123.32 231.585,116.62 243.228,112.239C238.512,111.201 233.56,111.094 228.782,110.281C260.019,89.674 291.161,81.716 326.924,72.591C328.511,69.538 330.399,66.684 332.588,64.03C344.927,49.366 363.689,42.873 382.267,41.2Z" style="fill:rgb(43,46,71);fill-rule:nonzero;"/>
        </g>
        <g transform="matrix(1,0,0,1,-37.0863,0)">
            <path d="M217.096,208.31C222.495,190.637 229.293,162.501 241.165,148.968C244.043,145.688 247.675,143.358 251.488,141.313C274.06,129.207 306.375,114.637 332.031,113.538C350.917,112.729 369.637,114.775 388.59,113.129C369.408,125.94 354.482,145.102 349.976,167.994C347.056,182.825 348.661,198.274 351.579,212.967C346.97,207.513 342.378,203.136 336.329,199.32C338.24,204.479 339.121,210.535 339.762,215.989C334.812,212.363 329.928,208.49 324.57,205.482C327.499,211.536 327.922,217.29 328.515,223.893C323.117,225.691 317.635,227.095 312.226,228.813C327.383,240.362 338.35,247.079 347.314,265.111C340.202,266.755 333.579,267.011 326.375,267.642C333.847,268.452 340.685,269.071 347.678,265.569C356.89,280.526 359.514,290.928 363.403,307.525C376.069,305.647 387.941,304.975 400.707,306.644C398.693,313.107 397.845,320.173 396.768,326.856C384.563,341.864 371.717,345.334 355.403,353.634C347.248,357.783 339.486,362.496 331.736,367.349C340.923,364.113 349.983,360.456 359.259,357.488C371.739,353.494 384.347,350.44 396.335,344.982C398.924,379.605 410,414.963 435.76,439.444C421.752,454.42 402.059,465.985 381.119,466.623C371.011,466.931 361.176,464.376 353.721,457.22C348.081,451.807 345.485,444.903 343.777,437.411L343.466,438.199L343.834,438.689C344.701,463.795 341.682,492.429 323.578,511.615C320.354,515.033 317.049,517.377 312.689,519.139C303.707,512.675 296.773,508.098 285.14,510.008C273.477,511.922 253.835,518.635 246.938,528.722C243.038,534.425 242.291,541.304 243.676,547.957C243.838,548.724 244.014,549.489 244.203,550.25C229.369,547.337 220.254,548.07 211.127,534.285C205.774,526.199 203.515,515.682 205.574,506.131C207.497,497.214 215.447,486.884 209.888,477.817C207.631,474.134 203.533,472.487 200.48,469.623C200.532,466.911 200.598,464.33 201.128,461.655C210.309,460.593 219.987,458.143 228.864,455.521C220.042,454.749 210.969,454.718 202.117,454.951L201.438,446.454C206.964,446.322 212.475,446.193 217.994,446.599C223.821,447.028 235.009,449.912 240.29,448.616L240.501,448.112C233.439,443.731 215.753,437.974 207.711,437.497C203.624,437.255 199.787,437.908 195.783,438.617C195.431,433.15 195.936,427.713 195.953,422.245C195.998,407.924 194.566,404.649 201.874,391.595L200.271,388.368C189.547,383.168 173.6,384.45 167.102,372.514C165.44,369.461 164.671,365.373 166.04,362.06C168.379,356.399 173.792,350.783 177.464,345.828C188.535,330.886 201.332,313.599 206.796,295.682C205.207,289.989 202.622,284.726 200.791,279.124C200.102,277.015 200.017,273.754 198.923,271.965C198.701,271.602 198.297,271.388 197.984,271.099L197.326,271.433C196.048,274.916 196.528,278.928 195.786,282.592L195.095,282.801L195.44,282.99C195.111,282.573 194.615,282.093 194.422,281.597C193.867,280.172 194.748,278.477 195.244,277.12C196.781,272.914 195.692,267.721 195.838,263.261C195.971,259.207 196.771,255.163 197.937,251.287C199.621,245.688 202.254,238.572 207.663,235.659L207.066,234.417C207.54,229.13 213.672,217.05 216.234,211.79C236.885,202.276 266.058,211.749 287.258,215.586C270.292,208.413 254.342,203.047 235.599,204.031C230.498,204.298 225.176,204.908 220.416,206.862C219.301,207.324 218.194,207.807 217.096,208.31Z" style="fill:rgb(254,254,254);fill-rule:nonzero;"/>
        </g>
        <g transform="matrix(1,0,0,1,-37.0863,0)">
            <path d="M206.459,386.266C199.037,384.354 178.043,380.138 173.644,373.336C173.723,372.06 173.608,371.435 174.309,370.316C177.787,372.69 181.135,374.748 185.406,375.36C188.56,375.811 192.031,374.599 195.193,374.317C200.655,373.831 212.546,374.574 213.926,381.164C214.217,382.556 214.021,383.778 213.249,384.988C212.25,386.554 209.711,387.662 208.08,388.42C207.959,388.324 207.811,388.254 207.717,388.132C207.2,387.463 207.099,386.966 206.459,386.266Z" style="fill:rgb(43,46,71);fill-rule:nonzero;"/>
        </g>
        <g transform="matrix(1,0,0,1,-37.0863,0)">
            <path d="M207.066,234.417C222.727,225.924 242.044,226.711 258.747,231.719C260.152,232.146 261.548,232.599 262.936,233.078C243.962,230.682 226.146,229.604 207.663,235.659L207.066,234.417Z" style="fill:rgb(43,46,71);fill-rule:nonzero;"/>
        </g>
        <g transform="matrix(1,0,0,1,-37.0863,0)">
            <path d="M206.459,386.266C207.099,386.966 207.2,387.463 207.717,388.132C207.811,388.254 207.959,388.324 208.08,388.42C206.168,389.36 203.356,390.122 201.874,391.595L200.271,388.368C202.509,387.85 204.413,387.354 206.459,386.266Z" style="fill:rgb(43,46,71);fill-rule:nonzero;"/>
        </g>
        <g transform="matrix(1,0,0,1,-37.0863,0)">
            <path d="M208.451,262.682C209.736,265.396 211.032,270.456 213.415,272.128C217.234,273.299 220.546,271.336 223.837,269.589C230.49,266.059 239.57,260.639 247.365,263.044C254.019,265.097 259.458,269.839 265.276,273.481C270.047,276.468 275.153,278.893 279.908,281.905C286.306,285.958 292.187,290.851 298.013,295.672C289.575,294.102 281.972,290.137 273.804,287.668C266.562,285.478 258.774,284.833 251.736,282.018C246.646,279.982 242.454,276.019 237.251,274.333C234.471,276.242 232.304,278.357 230.101,280.897C247.174,281.438 258.668,292.629 273.13,299.764C282.855,304.562 293.486,307.476 304.152,309.253C296.526,310.007 290.201,309.079 282.781,307.297C279.523,306.515 275.689,305.144 272.364,305.332L270.898,304.851C263.191,300.847 255.088,296.452 246.785,293.861C244.112,299.525 241.446,305.775 235.029,307.984C233.47,308.521 231.83,308.883 230.226,309.265C230.1,303.764 230.62,298.399 231.923,293.048C230.318,292.124 228.363,293.506 226.514,292.765L226.58,292.183C228.602,291.002 230.656,289.855 232.649,288.626C228.982,289.148 225.3,289.606 221.695,290.469C222.906,297.12 222.069,302.339 219.843,308.675C219.597,305.1 219.637,301.376 218.522,297.949C216.373,291.345 210.878,287.657 207.177,282.138C204.219,277.728 202.92,273.256 201.717,268.138C202.666,270.421 203.721,274.232 206.022,275.445C206.19,275.534 206.374,275.588 206.55,275.66C207.505,272.977 205.472,269.857 206.286,267.148C206.735,268.594 207.274,271.786 208.361,272.703C208.344,272.955 208.28,273.209 208.31,273.461C208.336,273.669 208.686,274.533 208.771,274.752L208.578,273.187C209.542,273.528 209.646,273.955 210.246,274.751L210.801,274.456C209.806,270.553 208.894,266.693 208.451,262.682Z" style="fill:rgb(43,46,71);fill-rule:nonzero;"/>
        </g>
        <g transform="matrix(1,0,0,1,-37.0863,0)">
            <path d="M204.47,350.128C209.387,349.742 214.214,350.387 218.57,352.821C223.682,355.678 227.526,360.942 229.627,366.358C231.808,371.978 232.442,378.828 233.482,384.778C235.489,396.271 237.324,407.825 239.861,419.216C242.033,428.96 246.394,438.429 247.765,448.312C249.482,460.693 247.797,471.62 251.11,484.236C245.905,475.759 244.295,468.144 244.733,458.222C244.887,454.751 245.273,451.206 244.813,447.747C244.238,443.42 242.572,439.51 240.99,435.478C234.289,418.733 231.145,402.67 230.473,384.661C228.116,387.341 225.617,389.862 222.183,391.122C218.258,392.563 210.271,395.211 206.298,393.39C207.898,391.097 219.353,387.879 223.273,383.514C225.436,381.107 226.197,378.17 225.969,374.982C225.586,369.605 222.272,362.507 218.019,358.997C213.955,355.644 208.934,354.417 203.759,355.118C194.85,356.324 189.748,362.418 184.609,369.078C185.477,366.149 186.337,363.312 187.981,360.707C191.824,354.617 197.669,351.639 204.47,350.128Z" style="fill:rgb(43,46,71);fill-rule:nonzero;"/>
        </g>
        <g transform="matrix(1,0,0,1,-37.0863,0)">
            <path d="M260.51,343.466C263.276,347.264 266.011,351.166 269.126,354.687C273.459,359.584 278.331,363.989 282.56,368.986C289.956,377.726 296.267,390.936 295.34,402.652C294.355,398.5 293.325,394.545 291.405,390.708C283.99,375.894 263.786,358.666 260.51,343.466Z" style="fill:rgb(43,46,71);fill-rule:nonzero;"/>
        </g>
        <g transform="matrix(1,0,0,1,-37.0863,0)">
            <path d="M215.763,474.688C216.52,474.894 217.475,475.052 218.045,475.642C219.98,477.646 228.473,497.793 230.806,502.084C232.396,505.008 237.118,510.975 237.099,513.982C229.809,506.098 223.261,498.192 218.711,488.38C217.018,484.729 214.31,478.653 215.763,474.688Z" style="fill:rgb(43,46,71);fill-rule:nonzero;"/>
        </g>
        <g transform="matrix(1,0,0,1,-37.0863,0)">
            <path d="M270.898,304.851L272.364,305.332C271.542,306.32 270.594,307.274 269.671,308.171C263.475,314.191 253.99,316.814 245.566,316.766C247.145,314.977 253.745,313.744 256.244,312.741C260.956,310.849 266.294,308.123 270.439,305.186C270.594,305.076 270.745,304.962 270.898,304.851Z" style="fill:rgb(43,46,71);fill-rule:nonzero;"/>
        </g>
        <g transform="matrix(1,0,0,1,-37.0863,0)">
            <path d="M229.55,312.914C233.717,321.444 237.707,330.018 241.679,338.64C241.292,338.359 241.218,338.324 240.834,337.928C235.181,332.089 229.099,321.139 229.55,312.914Z" style="fill:rgb(43,46,71);fill-rule:nonzero;"/>
        </g>
        <g transform="matrix(1,0,0,1,-37.0863,0)">
            <path d="M610.54,388.044C621.063,385.74 632.874,384.788 643.636,384.309C664.008,383.404 692.435,384.761 708.137,399.394C713.604,404.489 716.947,411.226 717.099,418.77C717.544,440.77 698.483,465.317 683.926,480.449C704.488,470.706 721.885,458.889 737.45,442.121C744.134,450.149 749.903,459.035 756.361,467.27C764.29,477.544 772.329,487.731 780.477,497.832C785.989,504.568 791.806,511.04 797.301,517.79L791.139,518.762C764.209,520.739 737.534,524.6 710.817,528.429C694.802,530.724 678.608,532.513 662.743,535.699C659.325,536.406 655.925,537.191 652.543,538.053C649.16,538.914 645.799,539.852 642.459,540.865C639.119,541.878 635.804,542.967 632.513,544.13C629.222,545.293 625.96,546.531 622.725,547.842C619.49,549.153 616.287,550.536 613.115,551.992C609.942,553.447 606.805,554.974 603.702,556.572C600.599,558.169 597.533,559.836 594.505,561.573C591.477,563.309 588.49,565.113 585.544,566.984C576.603,572.745 568.178,579.304 559.762,585.792C581.976,575.528 604.309,565.365 627.612,557.765C650.912,550.167 675.407,545.034 699.346,539.86C730.283,533.271 761.253,526.845 792.258,520.584C794.29,520.151 796.319,519.704 798.345,519.241C799.699,521.276 801.115,523.324 802.223,525.507C810.898,542.604 805.224,566.245 799.519,583.412C789.904,576.602 780.006,568.363 769.011,563.979C750.432,556.57 725.874,558.798 706.491,562.814C671.908,569.981 638.225,584.341 605.939,598.42C570.056,614.396 534.379,630.821 498.909,647.695C490.833,651.584 482.995,655.966 474.903,659.821C464.62,664.719 454.321,669.852 443.856,674.336C427.821,681.207 411.397,687.184 395.37,694.051C402.275,686.808 407.983,677.946 413.6,669.703C416.419,665.565 419.124,660.796 422.754,657.331C427.28,653.011 434.69,650.105 440.031,646.671C453.945,637.872 467.501,628.552 480.698,618.711C505.599,599.902 528.183,578.457 552.271,558.69C564.486,548.667 576.885,538.455 589.785,529.327C602.957,520.008 616.961,511.644 630.592,503C617.895,508.484 604.999,514.085 592.858,520.731C569.296,533.628 546.758,550.527 526.054,567.571C507.64,582.73 490.038,598.977 471.214,613.639C458.269,623.721 444.242,632.638 430.633,641.806C437.883,632.294 443.921,621.036 449.413,610.422C452.452,604.55 455.159,597.858 459.194,592.592C463.417,587.079 469.336,582.607 474.456,577.909C480.456,572.403 486.262,566.673 492.123,561.02C506.493,547.16 520.178,532.61 534.616,518.795C548.793,505.273 563.594,492.474 579.021,480.398C594.01,468.51 610.023,458.025 625.956,447.467C642.93,436.219 661.754,425.02 674.881,409.12C676.508,407.15 679.194,403.821 678.613,401.081C678.309,399.649 677.278,398.614 675.978,398.023C665.328,393.186 633.872,406.124 622.722,410.786C626.087,411.34 630.991,411.292 634.044,412.618C635.413,413.213 636.712,414.394 637.133,415.858C637.613,417.531 637.148,419.154 636.349,420.635C634.028,424.938 628.102,430.54 623.856,432.874C619.294,435.381 612.458,436.163 607.359,437.533C599.008,439.776 590.724,442.279 582.389,444.581C594.271,429.574 603.579,412.637 615.611,397.73C612.548,398.442 609.437,398.938 606.342,399.484C607.538,395.564 608.575,391.664 610.54,388.044Z" style="fill:rgb(180,57,60);fill-rule:nonzero;"/>
        </g>
        <g transform="matrix(1,0,0,1,-37.0863,0)">
            <path d="M472.926,466.481C474.591,468.501 472.329,476.264 472.834,479.363C473.275,482.069 474.581,483.03 476.733,484.493C473.69,510.687 464.587,542.51 453.734,566.705C450.251,574.471 446.783,584.108 441.707,590.868C437.962,595.856 432.33,599.919 427.631,604.041C410.78,618.822 394.524,633.454 373.209,641.601C370.887,634.748 368.487,627.819 365.48,621.233C354.254,596.646 335.484,582.979 310.716,573.691L315.084,569.853C340.897,576.161 360.972,593.792 377.642,613.54C381.55,618.226 385.341,623.144 389.723,627.397C375.094,606.151 368.948,589.284 346.475,572.849C340.846,568.732 329.682,565.627 327.008,563.483C326.794,563.311 326.536,563.122 326.477,562.855C326.389,562.459 327.621,560.791 327.689,560.235C327.801,559.317 327.359,557.586 327.239,556.622C329.463,554.477 342.226,549.406 345.795,547.656C360.025,540.68 374.157,533.439 388.272,526.232C393.956,530.08 399.141,535.392 404.298,539.931L432.003,563.977C424.386,553.827 416.263,543.951 408.409,533.975C405.095,529.766 401.066,525.58 398.472,520.898C425.393,504.891 448.304,485.553 472.926,466.481Z" style="fill:rgb(254,254,254);fill-rule:nonzero;"/>
        </g>
        <g transform="matrix(1,0,0,1,-37.0863,0)">
            <path d="M334.137,596.418C334.558,596.429 334.743,596.4 335.172,596.605C338.599,598.243 343.994,603.65 345.735,607.005C350.534,616.252 348.931,635.354 346.465,645.327C344.947,651.469 342.217,657.542 340.112,663.514C335.237,677.347 330.343,691.333 324.4,704.748C319.359,716.127 313.412,727.084 308.704,738.617C302.439,753.961 297.97,770.146 292.927,785.931C292.197,779.7 290.949,773.457 289.987,767.25C284.166,733.627 274.844,700.971 266.803,667.852C263.125,652.705 260.995,637.189 257.077,622.12C260.471,621.767 263.853,621.321 267.223,620.783C270.593,620.245 273.946,619.615 277.281,618.894C280.617,618.173 283.93,617.362 287.221,616.46C290.512,615.559 293.777,614.568 297.014,613.488C300.251,612.409 303.457,611.242 306.63,609.987C309.804,608.732 312.941,607.392 316.042,605.966C319.142,604.541 322.201,603.032 325.219,601.439C328.238,599.846 331.21,598.173 334.137,596.418Z" style="fill:rgb(180,57,60);fill-rule:nonzero;"/>
        </g>
        <g transform="matrix(1,0,0,1,-37.0863,0)">
            <path d="M339.416,601.454C339.448,604.974 331.215,616.522 328.905,620.469C321.158,633.707 310.438,656.857 304.941,671.241C301.992,679.085 299.453,687.059 297.322,695.163C295.192,703.268 293.482,711.46 292.193,719.74C290.944,727.441 290.574,735.595 288.76,743.154C288.72,743.322 288.676,743.488 288.634,743.655C288.056,741.746 287.922,739.876 287.813,737.892C287.534,732.827 287.872,727.729 287.981,722.662C288.745,687.043 299.284,660.464 318.04,630.825C324.616,620.433 331.145,610.617 339.416,601.454Z" style="fill:rgb(43,46,71);fill-rule:nonzero;"/>
        </g>
        <g transform="matrix(1,0,0,1,-37.0863,0)">
            <path d="M398.197,49.006C405.701,48.793 413.67,50.111 421.107,51.003C440.453,53.325 464.823,55.051 481.16,66.535C506.414,84.289 522.528,124.303 527.528,154.064C527.87,156.097 528.56,158.688 527.323,160.419C507.235,154.816 487.231,155.321 466.72,157.525C464.87,145.955 462.041,135.075 458.021,124.081C449.508,100.796 436.147,72.962 415.726,58.176C410.328,54.267 404.2,51.799 398.197,49.006Z" style="fill:rgb(254,254,254);fill-rule:nonzero;"/>
        </g>
        <g transform="matrix(1,0,0,1,-37.0863,0)">
            <path d="M548.957,435.997C549.937,436.339 549.939,436.525 550.573,437.292C549.936,443.256 521.223,469.721 514.975,475.088C532.994,467.35 548.846,455.557 566.45,447.189C564.242,454.18 561.555,460.656 558.293,467.2C565.449,461.283 571.536,454.701 578.203,448.312C580.665,454.271 582.105,461.103 583.98,467.305C565.742,481.586 547.982,496.032 530.796,511.583C509.929,531.656 488.913,551.572 467.747,571.329C480.608,542.763 487.9,516.58 491.656,485.415C493.825,484.036 495.791,482.592 497.785,480.975C499.306,472.031 500.12,462.404 500.585,453.34C516.905,448.114 532.91,441.995 548.957,435.997Z" style="fill:rgb(254,254,254);fill-rule:nonzero;"/>
        </g>
        <g transform="matrix(1,0,0,1,-37.0863,0)">
            <path d="M394.308,120.439C395.051,121.659 394.128,122.766 393.533,124.018C388.726,134.135 387.538,143.253 386.458,154.286C386.693,153.805 386.934,153.327 387.18,152.852C391.993,143.663 398.35,130.754 407.243,125.077C409.356,123.729 411.931,123.057 414.308,122.315C410.686,127.997 406.637,133.199 404.245,139.577C399.335,152.673 399.747,170.673 405.556,183.416C405.666,171.34 405.887,159.127 409.056,147.389C411.632,137.85 416.149,126.916 425.081,121.829C423.029,126.203 420.936,130.595 419.114,135.07C408.644,160.788 411.1,189.824 421.719,215.031C407.422,198.116 398.647,189.148 394.117,166.294C390.06,177.89 389.911,186.743 392.935,198.623C388.581,193.848 384.881,188.767 382.443,182.74C375.421,165.379 380.886,147.511 387.887,131.189C380.359,138.715 374.478,149.318 372.023,159.674C368.492,174.566 371.84,187.163 377.642,200.867C380.185,206.872 382.742,212.602 386.21,218.15C377.704,212.388 373.13,205.046 368.69,195.907C369.774,208.986 375.51,221.31 381.627,232.779C386.28,241.796 391.329,250.585 396.775,259.146C401.214,266.11 406.104,272.861 410.136,280.068C409.541,279.88 408.954,279.672 408.374,279.443C387.685,271.201 379.225,251.67 370.717,232.735C373.165,255.732 385.379,281.801 403.477,296.616C401.543,296.256 399.598,295.864 397.714,295.296C381.38,290.37 372.357,272.849 364.813,259.113C369.383,275.9 369.701,283.454 382.557,296.137C381.272,295.853 379.927,295.589 378.683,295.158C369.546,291.989 364.679,280.691 360.717,272.686C355.683,262.512 340.605,236.216 329.377,232.705C328.722,232.5 328.605,232.137 328.183,231.608C328.391,231.568 328.596,231.498 328.808,231.488C331.624,231.356 333.363,230.609 336.025,229.692C334.807,226.281 333.983,222.833 333.164,219.309C340.179,225.984 345.988,233.703 354.479,238.682C349.732,231.32 347.78,223.204 346.174,214.691C351.317,219.848 355.348,225.837 360.348,231.091C356.321,212.142 353.835,186.817 358.196,168.011C362.84,147.979 377.132,131.101 394.308,120.439Z" style="fill:rgb(172,166,160);fill-rule:nonzero;"/>
        </g>
        <g transform="matrix(1,0,0,1,-37.0863,0)">
            <path d="M363.122,167.322C364.026,169.701 363.172,179.569 363.313,183.123C363.648,191.524 364.689,199.915 365.513,208.28C365.818,211.379 366.574,214.763 366.417,217.854L365.837,217.317C360.406,202.149 356.677,182.714 363.122,167.322Z" style="fill:rgb(43,46,71);fill-rule:nonzero;"/>
        </g>
        <g transform="matrix(1,0,0,1,-37.0863,0)">
            <path d="M507.049,373.419C512.481,374.439 527.423,374.635 530.989,378.13C531.598,378.727 531.424,378.922 531.436,379.696C527.876,386.75 510.938,402.721 504.774,409.041C495.971,418.068 487.368,427.338 478.161,435.958C435.828,475.597 382.293,513.674 328.365,535.51C323.626,537.426 318.922,539.329 314.042,540.865C310.967,536.599 310.111,532.435 309.526,527.346C316.187,522.767 330.295,517.606 338.228,513.853C349.744,508.405 360.779,502.001 371.843,495.698C403.955,477.404 443.373,450.195 467.664,422.488C474.049,415.205 480.559,407.862 486.471,400.19C493.341,391.275 499.634,381.909 507.049,373.419Z" style="fill:rgb(254,254,254);fill-rule:nonzero;"/>
        </g>
        <g transform="matrix(1,0,0,1,-37.0863,0)">
            <path d="M463.161,242.445L463.703,242.645C464.516,244.833 464.191,248.004 464.164,250.329C463.914,272.058 448.99,281.118 441.2,299.512C431.865,321.556 432.301,343.797 441.203,365.813C440.449,367.42 439.729,369.043 439.276,370.764C438.388,374.14 438.719,378.02 440.601,381.008C443.161,385.073 447.066,386.219 451.422,387.331C455.118,391.936 458.938,396.232 463.175,400.353C459.635,405.218 449.485,420.741 445.177,423.314L444.177,422.907C436.107,415.129 428.488,404.916 423.28,394.98C408.741,367.239 405.365,330.529 414.695,300.525C414.93,299.75 415.175,298.979 415.43,298.211C415.685,297.442 415.949,296.677 416.222,295.915C416.496,295.153 416.779,294.395 417.072,293.64C417.365,292.885 417.667,292.135 417.978,291.388C418.289,290.641 418.61,289.897 418.94,289.158C419.27,288.419 419.609,287.684 419.958,286.953C420.307,286.223 420.664,285.497 421.031,284.775C421.398,284.053 421.773,283.336 422.158,282.624C422.543,281.912 422.936,281.205 423.338,280.502C423.741,279.799 424.152,279.102 424.571,278.41C424.991,277.718 425.42,277.031 425.857,276.35C426.294,275.669 426.739,274.993 427.193,274.322C427.647,273.652 428.109,272.988 428.58,272.329C429.05,271.67 429.529,271.018 430.016,270.371C430.503,269.724 430.997,269.084 431.5,268.449C432.003,267.815 432.514,267.187 433.033,266.566C433.552,265.944 434.078,265.329 434.612,264.721C435.146,264.112 435.687,263.511 436.236,262.916C436.785,262.321 437.342,261.734 437.906,261.153C438.47,260.572 439.041,259.998 439.619,259.432C440.197,258.865 440.782,258.306 441.374,257.754C441.967,257.202 442.566,256.658 443.171,256.121C443.777,255.584 444.39,255.054 445.009,254.533C445.628,254.012 446.253,253.498 446.885,252.992C447.517,252.486 448.155,251.988 448.8,251.498C449.444,251.008 450.094,250.526 450.751,250.053C451.408,249.579 452.07,249.113 452.738,248.656C453.406,248.199 454.08,247.751 454.759,247.311C455.438,246.87 456.123,246.439 456.813,246.016C457.503,245.593 458.198,245.178 458.899,244.773C459.6,244.367 460.305,243.97 461.015,243.582C461.726,243.194 462.441,242.815 463.161,242.445Z" style="fill:rgb(254,254,254);fill-rule:nonzero;"/>
        </g>
        <g transform="matrix(1,0,0,1,-37.0863,0)">
            <path d="M511.157,295.095C511.992,295.023 512.828,294.982 513.666,294.973C514.503,294.963 515.34,294.985 516.176,295.038C517.012,295.091 517.845,295.174 518.675,295.289C519.505,295.404 520.329,295.55 521.148,295.727C521.967,295.904 522.779,296.111 523.582,296.348C524.385,296.585 525.179,296.851 525.963,297.148C526.746,297.445 527.518,297.77 528.277,298.124C529.036,298.478 529.781,298.86 530.512,299.269C538.771,303.843 544.778,312.016 547.347,321.036C551.107,334.237 549.259,349.283 543.458,361.593C541.088,366.622 538.031,371.309 535.326,376.162C530.819,371.142 527.108,370.289 520.623,369.691C515.202,369.073 509.823,368.458 504.367,368.258C502.06,369.44 500.51,370.63 498.652,372.468C490.538,365.383 483.88,356.841 481.291,346.196C478.64,335.291 480.626,322.096 486.492,312.518C492.105,303.353 500.815,297.566 511.157,295.095Z" style="fill:rgb(254,254,254);fill-rule:nonzero;"/>
        </g>
        <g transform="matrix(1,0,0,1,-37.0863,0)">
            <path d="M513.033,313.168C519.65,312.603 526.352,313.512 532.029,317.205C537.328,320.652 541.212,326.038 542.387,332.292C543.529,338.364 541.797,344.281 538.207,349.229C532.779,356.707 524.777,360.681 515.82,362.052C508.959,362.15 502.559,360.007 496.865,356.238C491.155,352.457 486.096,347.086 484.803,340.137C483.868,335.11 485.342,330.487 488.285,326.395C494.275,318.067 503.241,314.643 513.033,313.168Z" style="fill:rgb(43,46,71);fill-rule:nonzero;"/>
        </g>
        <g transform="matrix(1,0,0,1,-37.0863,0)">
            <path d="M510.355,328.149C510.675,328.233 511.005,328.284 511.314,328.402C512.041,328.68 512.424,329.017 512.769,329.691C514.603,333.27 514.867,341.526 513.598,345.336C512.557,345.21 512.436,345.141 511.615,344.482C510.88,342.944 510.746,341.82 510.671,340.116L510.65,339.508L510.223,340.373L510.653,338.964C510.303,339.079 509.599,345.84 508.387,347.119C508.259,347.042 508.119,346.982 508.004,346.887C505.9,345.129 505.732,339.823 505.402,337.283C505.175,339.203 505.26,341.283 504.868,343.164C504.614,344.389 504.237,345.714 503.158,346.444L502.184,346C500.41,343.337 499.956,340.27 499.163,337.211C498.958,340.351 500.574,345.138 499.438,347.817L497.876,348.121C496.657,344.274 494.834,336.769 495.802,332.817L496.891,332.161C498.152,333.331 498.167,335.729 499.026,337.335L499.614,337.28C500.295,335.596 499.281,333.395 499.588,331.455L500.506,330.977C502.761,332.856 503.056,337.888 503.603,340.695C504.012,338.36 504.628,335.873 504.335,333.502C504.203,332.429 504.132,331.351 504.038,330.274C504.751,329.329 504.768,329.335 505.917,329.036C507.383,331.253 507.886,336.217 508.669,338.96C508.742,337.905 508.92,336.902 509.117,335.863C509.443,335.563 510.053,335.022 510.312,334.688C511.536,333.105 510.625,329.987 510.355,328.149Z" style="fill:rgb(254,254,254);fill-rule:nonzero;"/>
        </g>
        <g transform="matrix(1,0,0,1,-37.0863,0)">
            <path d="M529.555,339.801C530.03,336.92 530.862,331.284 532.931,329.182L533.406,329.543C534.117,331.42 533.857,332.665 533.503,334.609C532.978,337.332 532.651,340.826 531.18,343.203C530.376,344.503 529.769,345.039 528.3,345.433C527.502,345.098 527.163,344.839 526.624,344.129C523.951,340.602 523.034,333.364 523.945,329.149C524.488,329.317 524.964,329.414 525.441,329.725C527.777,331.248 528.731,337.122 529.555,339.801Z" style="fill:rgb(254,254,254);fill-rule:nonzero;"/>
        </g>
        <g transform="matrix(1,0,0,1,-37.0863,0)">
            <path d="M517.578,328.128C519.446,328.869 519.734,329.938 520.51,331.662C522.248,335.528 524.518,341.408 522.945,345.552L522.028,345.696C520.725,344.02 520.517,342.211 520.138,340.187L519.881,339.697C519.203,340.316 519.407,339.924 519.314,340.854C519.101,342.963 519.129,345.24 517.413,346.655C516.684,346.516 516.505,346.342 515.937,345.894C514.763,342.987 517.531,332.714 517.58,328.779C517.582,328.562 517.578,328.345 517.578,328.128Z" style="fill:rgb(254,254,254);fill-rule:nonzero;"/>
        </g>
        <g transform="matrix(1,0,0,1,-37.0863,0)">
            <path d="M496.764,207.223C505.494,207.054 514.997,206.229 523.652,207.223C529.36,207.879 531.84,209.556 535.302,213.876C524.445,214.154 495.853,212.377 487.316,214.853C485.443,215.396 483.751,216.738 482.174,217.852L483.483,278.252C466.065,297.287 458.842,311.827 457.523,337.841C457.63,343.95 458.796,349.883 460.597,355.699C454.673,354.862 451.107,355.105 445.785,358.022C436.353,337.044 441.966,309.256 453.991,290.507C459.103,282.536 465.675,276.255 468.378,266.882C472.078,254.045 470.424,226.74 470.425,212.333C479.277,209.772 487.501,207.671 496.764,207.223Z" style="fill:rgb(254,254,254);fill-rule:nonzero;"/>
        </g>
        <g transform="matrix(1,0,0,1,-37.0863,0)">
            <path d="M339.903,80.208C346.776,79.551 353.803,79.914 360.689,80.194C351.628,82.251 343.144,85.281 334.341,88.181C328.507,90.102 322.598,91.78 316.81,93.84C325.392,93.398 334.018,92.089 342.643,91.627C361.712,90.606 382.542,93.32 400.422,100.144C390.87,98.881 380.753,99.383 371.117,99.38C340.585,99.37 308.499,99.461 280.042,112.142C290.306,109.763 324.677,105.025 333.638,107.071L318.055,109.043C302.298,109.537 286.135,113.981 270.983,117.98C279.728,118.303 289.024,117.13 297.744,116.323C288.172,121.092 261.901,130.363 251.045,131.828C245.063,129.237 237.983,128.825 231.589,127.786L231.574,127.068C234.298,124.079 270.929,110.469 277.279,108.516C268.709,107.344 259.527,107.398 250.917,107.912C274.056,93.971 312.832,82.528 339.903,80.208Z" style="fill:rgb(172,166,160);fill-rule:nonzero;"/>
        </g>
        <g transform="matrix(1,0,0,1,-37.0863,0)">
            <path d="M489.613,221.269C504.364,220.69 519.202,220.955 533.966,220.933C534.159,237.537 534.218,254.141 534.141,270.746L529.91,269.333C515.429,265.671 504.38,267.589 490.751,273.016C490.318,266.753 490.506,260.37 490.285,254.082C489.901,243.173 489.201,232.182 489.613,221.269Z" style="fill:rgb(254,254,254);fill-rule:nonzero;"/>
        </g>
        <g transform="matrix(1,0,0,1,-37.0863,0)">
            <path d="M511.53,235.932C513.326,236 514.731,236.067 516.059,237.477C517.64,239.156 518.342,241.72 518.24,243.986C518.104,247.014 517.549,249.264 515.29,251.332C513.652,251.299 512.209,251.259 510.876,250.142C509.363,248.873 508.645,246.919 508.537,244.985C508.359,241.783 509.438,238.345 511.53,235.932Z" style="fill:rgb(43,46,71);fill-rule:nonzero;"/>
        </g>
        <g transform="matrix(1,0,0,1,-37.0863,0)">
            <path d="M425.4,620.465C425.426,620.707 425.511,620.95 425.477,621.191C424.989,624.579 419.895,631.664 417.927,634.808C412.212,643.934 406.063,654.713 398.663,662.571C394.532,666.957 388.447,670.014 383.701,673.787C373.259,682.088 363.189,690.886 352.783,699.247C347.612,699.123 342.567,698.799 337.423,698.24L336.722,697.892C336.336,696.233 349.878,662.846 351.859,658.318C371.983,653.225 391.64,645.511 408.78,633.566C414.378,629.664 419.185,624.728 424.814,620.864L425.4,620.465Z" style="fill:rgb(180,57,60);fill-rule:nonzero;"/>
        </g>
        <g transform="matrix(1,0,0,1,-37.0863,0)">
            <path d="M513.824,275.696C521.592,274.565 529.898,277.061 536.378,281.273C548.034,288.848 555.87,302.637 558.669,316.056C563.238,337.969 559.349,360.266 546.856,378.935C537.708,392.605 525.784,402.962 514.288,414.479C501.767,427.023 489.567,439.987 476.455,451.922C468.397,459.135 460.127,466.096 451.646,472.805C443.165,479.515 434.488,485.961 425.615,492.144C416.742,498.327 407.69,504.234 398.458,509.867C389.226,515.5 379.832,520.847 370.275,525.908C359.979,531.283 348.601,538.104 337.136,540.349C373.424,523.567 412.734,498.044 444.738,474.103C458.391,463.487 471.848,452.353 484.24,440.273C496.292,428.523 507.41,415.937 519.006,403.761C530.472,391.722 545.464,379.458 551.9,363.866C558.653,347.505 560.022,325.961 553.11,309.426C548.393,298.141 540.285,288.886 528.763,284.341C518.579,280.323 508.382,281.189 498.493,285.629C486.242,291.129 477.235,301.556 472.502,314.034C467.298,327.756 467.014,344.622 473.184,358.087C477.272,367.008 483.816,374.864 493.148,378.393C491.861,380.006 490.555,381.603 489.231,383.186C487.229,382.312 485.225,381.3 483.499,379.95C473.413,372.06 466.978,355.946 465.592,343.544C463.64,326.072 468.413,307.07 479.485,293.256C488.279,282.284 500.102,277.287 513.824,275.696Z" style="fill:rgb(254,254,254);fill-rule:nonzero;"/>
        </g>
        <g transform="matrix(1,0,0,1,-37.0863,0)">
            <path d="M371.364,53.18C380.598,51.908 391.138,54.654 399.519,58.398C428.615,71.398 442.199,103.917 452.859,131.886C455.071,137.69 462.193,160.771 459.795,166.088C457.278,164.477 451.509,143.589 449.838,139.117C439.253,114.081 418.582,82.52 394.142,69.429C382.355,63.116 367.301,60.539 354.336,64.414C348.879,66.045 343.77,68.626 338.295,70.261C338.709,69.665 339.139,69.081 339.584,68.508C346.381,59.824 360.78,54.586 371.364,53.18Z" style="fill:rgb(254,254,254);fill-rule:nonzero;"/>
        </g>
        <g transform="matrix(1,0,0,1,-37.0863,0)">
            <path d="M520.425,103.944C520.63,104.045 520.843,104.13 521.039,104.247C526.649,107.615 531.717,112.514 536.977,116.453C544.536,122.113 551.577,128.211 558.658,134.441C564.432,139.521 570.325,144.517 575.634,150.093C577.555,152.12 579.412,154.203 581.205,156.343C582.998,158.482 584.725,160.674 586.386,162.919C588.046,165.164 589.636,167.458 591.157,169.799C592.678,172.14 594.126,174.526 595.501,176.956C596.876,179.385 598.177,181.855 599.402,184.364C600.627,186.873 601.775,189.416 602.846,191.995C603.917,194.574 604.908,197.182 605.819,199.821C606.731,202.46 607.562,205.125 608.311,207.814C603.934,200.459 599.804,192.961 594.855,185.964C589.091,177.814 582.351,170.381 575.781,162.882C579.605,169.878 583.174,177.388 583.925,185.399C580.69,178.017 577.508,170.711 573.397,163.758C567.754,153.6 559.993,142.841 551.433,134.959C547.897,131.704 543.908,128.877 540.191,125.822C548.439,136.735 557.511,146.096 560.5,159.899C563.721,174.766 561.73,195.002 553.395,207.998C556.573,195.899 557.401,183.953 555.623,171.547C553.989,160.144 549.763,145.435 541.103,137.269C537.999,134.343 534.127,132.162 530.708,129.609C527.982,120.658 524.798,112.231 520.425,103.944Z" style="fill:rgb(172,166,160);fill-rule:nonzero;"/>
        </g>
        <g transform="matrix(1,0,0,1,-37.0863,0)">
            <path d="M244.355,621.972C246.057,621.88 248.14,621.572 249.517,622.628C251.415,628.947 252.208,635.804 253.4,642.301C255.404,653.229 257.518,664.206 260.062,675.021C263.054,687.735 266.759,700.281 269.848,712.976C278.824,749.853 284.85,785.964 284.742,824.025C284.716,833.173 285.257,842.931 284.106,851.98C283.127,859.667 281.105,867.327 279.397,874.887C279.16,875.82 279.066,876.876 278.395,877.583C277.352,872.679 278.549,865.494 278.709,860.356C278.936,851.394 279.104,842.431 279.211,833.467C279.503,813.193 278.708,793.356 276.084,773.228C274.005,756.428 270.936,739.81 266.878,723.375C263.152,707.923 258.535,692.682 254.649,677.268C250.135,659.365 246.416,640.313 244.355,621.972Z" style="fill:rgb(254,254,254);fill-rule:nonzero;"/>
        </g>
        <g transform="matrix(1,0,0,1,-37.0863,0)">
            <path d="M482.653,484.197C483.635,484.288 484.207,484.392 485.057,484.899C486.756,490.441 477.669,526.46 475.573,533.872C461.952,582.048 424.415,647.243 393.714,686.696C387.956,694.095 382.058,703.521 373.727,708.181C372.77,708.419 372.575,708.449 371.668,708.303C371.964,707.462 397.175,676.846 401.032,671.378C426.629,635.084 455.231,585.835 469.185,543.331C475.563,523.905 479.575,504.359 482.653,484.197Z" style="fill:rgb(254,254,254);fill-rule:nonzero;"/>
        </g>
        <g transform="matrix(1,0,0,1,-37.0863,0)">
            <path d="M539.851,267.144C552.69,274.499 562.167,290.692 566.882,304.243C575.149,327.998 573.601,357.922 562.408,380.53C552.5,400.544 534.399,417.484 513.152,424.754L511.639,424.756C512.067,423.702 537.436,402.549 540.685,399.577C558.312,383.451 567.503,362.777 568.432,338.987C569.172,320.028 564.542,299.17 552.141,284.278C548.602,280.028 543.437,276.928 540.169,272.627C539.201,271.353 539.73,268.718 539.851,267.144Z" style="fill:rgb(254,254,254);fill-rule:nonzero;"/>
        </g>
        <g transform="matrix(1,0,0,1,-37.0863,0)">
            <path d="M362.019,705.081L362.216,705.32C362.204,705.966 362.328,706.346 361.916,706.892C358.995,710.76 352.413,711.81 347.889,712.17C345.046,714.502 343.113,717.005 341.431,720.272C336.044,730.739 332.776,742.62 328.557,753.622C323.296,767.342 317.686,780.98 312.714,794.804C306.357,813.022 300.361,831.358 294.728,849.812C292.213,858.259 289.828,866.742 287.575,875.262C286.495,879.21 285.654,884.32 283.795,887.908C283.086,889.277 281.513,889.197 280.153,889.49L279.654,888.513C280.566,882.747 283.395,876.752 285.057,871.085C289.407,856.259 293.628,841.421 298.506,826.754C306.481,802.778 315.516,779.042 324.328,755.36C328.449,744.285 334.171,725.928 339.511,716.337C341.221,713.264 344.125,711.015 346.788,708.811C352.383,708.3 356.821,707.209 362.019,705.081Z" style="fill:rgb(254,254,254);fill-rule:nonzero;"/>
        </g>
        <g transform="matrix(1,0,0,1,-37.0863,0)">
            <path d="M490.715,172.978C499.275,173.038 507.806,174.554 516.179,176.217C517.646,184.088 518.97,191.933 519.612,199.922C511.842,199.873 504.072,199.889 496.302,199.969C494.067,191.105 492.408,181.959 490.715,172.978Z" style="fill:rgb(254,254,254);fill-rule:nonzero;"/>
        </g>
        <g transform="matrix(1,0,0,1,-37.0863,0)">
            <path d="M333.867,706.41C335.24,706.804 336.438,707.262 337.735,707.86C335.383,711.479 332.801,715.15 330.86,718.998C327.294,726.067 324.733,733.897 321.874,741.293C317.719,751.93 313.5,762.541 309.217,773.126C308.75,774.302 308.357,775.462 307.568,776.468C307.427,772.513 308.97,767.752 309.946,763.87C315.15,743.183 323.391,724.925 333.867,706.41Z" style="fill:rgb(254,254,254);fill-rule:nonzero;"/>
        </g>
        <g transform="matrix(1,0,0,1,-37.0863,0)">
            <path d="M485.286,173.231L486.255,173.269C488.564,178.475 491.166,193.523 492.321,199.678C491.104,200.363 489.991,200.285 488.624,200.373C485.853,200.412 483.133,200.824 480.389,201.188C480.308,192.255 479.701,182.986 480.405,174.092C481.688,173.235 483.757,173.34 485.286,173.231Z" style="fill:rgb(254,254,254);fill-rule:nonzero;"/>
        </g>
        <g transform="matrix(1,0,0,1,-37.0863,0)">
            <path d="M355.305,618.241C359.633,622.047 368.483,636.429 371.68,642.081L367.96,643.532C364.03,644.9 360.122,646.078 356.086,647.092C357.488,637.112 356.501,628.167 355.305,618.241Z" style="fill:rgb(254,254,254);fill-rule:nonzero;"/>
        </g>
        <g transform="matrix(1,0,0,1,-37.0863,0)">
            <path d="M289.354,515.679C295.917,515.811 300.404,518.401 304.925,522.981C301.913,521.747 298.452,520.006 295.235,519.576C285.941,518.335 262.745,526.891 255.565,532.567C252.215,536.223 251.043,539.347 249.382,543.909L249.16,543.635C248.719,538.701 250.152,534.566 253.136,530.663C258.6,523.516 280.469,516.881 289.354,515.679Z" style="fill:rgb(254,254,254);fill-rule:nonzero;"/>
        </g>
        <g transform="matrix(1,0,0,1,-37.0863,0)">
            <path d="M269.866,900.044C271.822,899.964 274.548,899.571 276.209,900.742C276.283,901.578 276.351,902.403 276.374,903.242L276.385,903.863C276.857,902.405 277.25,902.015 278.545,901.289C279.69,901.451 279.875,901.469 280.757,902.198C280.904,902.816 281.03,903.36 281.008,904.001C280.888,907.49 279.092,914.663 276.438,917.005L274.891,916.494C274.532,915.104 274.782,914.059 275.057,912.689L275.177,912.108C275.815,910.656 275.802,908.493 275.757,906.924L275.395,908.673C275.017,910.517 274.687,913.215 273.437,914.716C272.568,915.759 271.961,916.07 270.608,916.1C269.446,916.125 268.192,915.7 267.406,914.855C266.289,910.545 268.56,904.234 269.866,900.044Z" style="fill:rgb(254,254,254);fill-rule:nonzero;"/>
        </g>
        <g transform="matrix(1,0,0,1,-37.0863,0)">
            <path d="M482.889,386.199C484.065,386.71 484.714,387.084 485.566,388.048C484.339,393.515 463.692,415.525 458.585,420.682L457.674,421.566L457.323,421.392C458.664,418.143 462.034,414.829 464.139,411.947C470.486,403.435 476.736,394.852 482.889,386.199Z" style="fill:rgb(254,254,254);fill-rule:nonzero;"/>
        </g>
        <g transform="matrix(1,0,0,1,-37.0863,0)">
            <path d="M475.268,163.206C487.486,161.883 512.974,162.507 524.529,166.608L524.087,167.076C521.359,167.644 518.873,167.038 516.178,166.555C510.863,165.869 505.528,165.396 500.175,165.136C494.822,164.876 489.467,164.83 484.11,164.998C478.11,165.145 471.441,166.282 465.521,165.553C468.166,163.205 471.941,163.348 475.268,163.206Z" style="fill:rgb(254,254,254);fill-rule:nonzero;"/>
        </g>
        <g transform="matrix(1,0,0,1,-37.0863,0)">
            <path d="M275.588,890.767C278.153,891.123 280.725,891.846 283.254,892.418C282.714,894.622 282.359,897.763 280.876,899.5C279.27,898.799 277.539,898.558 275.854,898.111C274.335,897.708 273.688,897.33 272.914,895.973C273.088,893.909 274.433,892.414 275.588,890.767Z" style="fill:rgb(254,254,254);fill-rule:nonzero;"/>
        </g>
        <g transform="matrix(1,0,0,1,-37.0863,0)">
            <path d="M452.072,360.441C453.742,360.282 455.374,360.33 457.02,360.694C461.924,361.776 464.634,365.72 467.247,369.625C465.568,368.078 463.797,366.708 461.982,365.33C454.191,361.375 455.52,367.626 449.395,367.575C449.113,367.244 448.42,366.704 448.502,366.242C448.951,363.693 450.15,362.095 452.072,360.441Z" style="fill:rgb(254,254,254);fill-rule:nonzero;"/>
        </g>
        <g transform="matrix(1,0,0,1,-37.0863,0)">
            <path d="M721.294,774.975C721.251,779.223 719.381,784.595 718.15,788.632C708.068,821.714 689.436,850.47 673.503,880.828C666.828,893.545 660.512,906.888 655.191,920.219C646.579,941.792 642.003,964.157 639.895,987.231C623.917,988.812 608.091,990.408 592.045,991.249C591.878,979.674 595.614,964.102 598.426,952.758C608.72,911.222 626.238,882.651 655.563,851.869C664.884,842.085 674.726,832.823 683.862,822.858C692.627,813.298 701.152,803.595 708.845,793.14C713.195,787.228 717.058,780.97 721.294,774.975Z" style="fill:rgb(43,46,71);fill-rule:nonzero;"/>
        </g>
        <g transform="matrix(1,0,0,1,-37.0863,0)">
            <path d="M426.764,877.126C424.165,873.964 421.178,869.38 417.505,867.521L416.79,868.226L416.125,868.134L415.938,866.893C420.27,863.17 432.083,864.431 437.404,864.821C440.709,865.053 443.995,865.448 447.261,866.005C450.528,866.562 453.759,867.278 456.954,868.154C471.613,872.032 488.183,880.125 503.408,876.608C500.39,882.462 497.169,888.347 495.32,894.697C494.176,898.625 492.619,913.029 491.585,914.745C490.501,916.545 487.708,917.623 485.827,918.386L478.818,917.482C480.114,920.73 481.661,923.771 483.305,926.856C483.446,928.057 483.565,929.29 483.314,930.485C482.323,935.199 474.784,958.3 472.192,961.717C470.982,963.311 469.74,964.147 467.864,964.768C466.458,964.639 464.944,964.127 464.071,962.938C463.98,962.814 463.92,962.671 463.844,962.537C462.93,960.34 462.001,958.116 460.827,956.044C451.149,938.964 433.744,923.448 415.448,916.211C410.012,914.061 404.094,912.841 398.465,911.262C415.098,907.191 425.351,899.078 443.957,897.68C432.986,894.51 423.418,894.606 412.402,897.372C412.44,895.754 413.43,894.773 414.371,893.553C413.713,891.509 409.273,889.336 407.473,888.184C417.188,885.037 427.855,885.118 437.976,884.928C437.411,884.728 436.843,884.543 436.277,884.347C427.717,881.393 419.737,881.077 411.312,877.047C412.381,874.295 414.752,872.237 416.781,870.175C420.207,872.362 423.321,874.994 426.764,877.126Z" style="fill:rgb(43,46,71);fill-rule:nonzero;"/>
        </g>
        <g transform="matrix(1,0,0,1,-37.0863,0)">
            <path d="M469.03,922.193C465.725,919.999 449.919,913.192 449.605,912.915C449.275,912.625 449.128,912.177 448.89,911.807C448.966,910.455 448.905,910.322 449.757,909.293C450.195,909.192 450.309,909.137 450.819,909.188C455.086,909.616 472.714,921.345 476.648,924.688C478.336,926.123 479.542,928.076 480.753,929.91C480.986,930.072 481.757,930.221 482.044,930.3C483,929.45 483.018,928.087 483.305,926.856C483.446,928.057 483.565,929.29 483.314,930.485C482.323,935.199 474.784,958.3 472.192,961.717C470.982,963.311 469.74,964.147 467.864,964.768C466.458,964.639 464.944,964.127 464.071,962.938C463.98,962.814 463.92,962.671 463.844,962.537C465.279,961.234 465.189,960.88 465.568,959.046C464.863,956.439 463.574,952.947 462.184,950.657C460.56,947.981 456.565,944.252 456.139,941.252C455.97,940.064 456.35,939.305 457.219,938.525C459.485,936.494 463.956,936.885 466.761,936.913L466.545,936.396L467.817,936.806C466.678,934.207 454.014,935.527 450.833,932.576C449.405,931.25 448.645,929.604 448.565,927.673C448.519,926.54 448.418,925.777 447.997,924.696L447.68,924.722L447.326,926.295L447.329,926.264L448.303,933.717C444.669,925.65 445.53,921.609 448.249,913.434C452.745,918.475 457.778,926.011 469.03,922.193Z" style="fill:rgb(254,254,254);fill-rule:nonzero;"/>
        </g>
        <g transform="matrix(1,0,0,1,-37.0863,0)">
            <path d="M483.305,926.856C483.446,928.057 483.565,929.29 483.314,930.485C482.323,935.199 474.784,958.3 472.192,961.717C470.982,963.311 469.74,964.147 467.864,964.768C466.458,964.639 464.944,964.127 464.071,962.938C463.98,962.814 463.92,962.671 463.844,962.537C465.279,961.234 465.189,960.88 465.568,959.046C467.099,959.421 468.412,959.705 469.776,958.712C472.695,956.588 476.105,941.133 477.357,936.887C476.29,935.828 474.868,934.649 474.107,933.351C473.568,932.433 473.672,932.249 473.971,931.313C475.93,930.113 478.505,930.146 480.753,929.91C480.986,930.072 481.757,930.221 482.044,930.3C483,929.45 483.018,928.087 483.305,926.856Z" style="fill:rgb(43,46,71);fill-rule:nonzero;"/>
        </g>
        <g transform="matrix(1,0,0,1,-37.0863,0)">
            <path d="M473.13,879.334C475.263,881.144 477.142,885.783 478.541,888.313L488.378,885.778C486.463,887.343 484.965,893.875 483.06,894.554C482.814,898.668 484.612,907.903 485.434,911.98C483.735,909.852 482.139,907.623 480.506,905.442L476.832,902.515C473.685,905.637 470.911,906.549 467.576,909.468C468.589,905.238 470,901.082 471.285,896.928C467.064,895.308 463.304,893.534 459.666,890.818C463.883,890.896 468.012,890.845 472.22,890.534C472.376,886.766 472.523,883.06 473.13,879.334Z" style="fill:rgb(254,254,254);fill-rule:nonzero;"/>
        </g>
        <g transform="matrix(1,0,0,1,-37.0863,0)">
            <path d="M314.016,907.191C328.776,898.422 344.375,892.755 360.132,886.16C374.134,880.301 388.789,872.941 403.781,870.025C408.43,869.12 412.161,869.171 416.781,870.175C414.752,872.237 412.381,874.295 411.312,877.047C408.445,876.086 405.514,875.449 402.568,874.781C406.864,876.936 411.187,879.035 415.538,881.077C395.954,884.067 378.759,891.936 360.035,897.708C344.814,902.4 329.701,904.802 314.016,907.191Z" style="fill:rgb(180,57,60);fill-rule:nonzero;"/>
        </g>
        <g transform="matrix(1,0,0,1,-37.0863,0)">
            <path d="M326.141,910.755C326.597,910.687 326.31,910.686 326.975,910.967C325.738,915.553 318.819,925.475 316.226,930.878C306.457,951.232 296.603,973.004 290.272,994.671C288.06,994.092 285.78,993.704 283.538,993.253C282.934,993.242 282.361,993.029 281.78,992.873C281.091,990.772 283.581,985.191 284.354,982.889C292.642,958.184 303.16,934.75 314.661,911.415L326.141,910.755Z" style="fill:rgb(43,46,71);fill-rule:nonzero;"/>
        </g>
        <g transform="matrix(1,0,0,1,-37.0863,0)">
            <path d="M374.569,906.506C382.957,901.349 397.04,893.907 406.415,891.032C409.056,891.927 411.692,892.781 414.371,893.553C413.43,894.773 412.44,895.754 412.402,897.372C399.82,901.774 388.131,906.573 374.569,906.506Z" style="fill:rgb(180,57,60);fill-rule:nonzero;"/>
        </g>
    </g>
</svg>
